HIERARCHY
ROOT Hips
{
	OFFSET 0.000000 103.266502 0.000000
	CHANNELS 6 Xposition Yposition Zposition Xrotation Yrotation Zrotation 
	JOINT Spine
	{
		OFFSET -0.002400 12.777504 0.315300
		CHANNELS 3 Xrotation Yrotation Zrotation
		JOINT Spine1
		{
			OFFSET -0.002067 5.816869 0.032633
			CHANNELS 3 Xrotation Yrotation Zrotation
			JOINT Spine1_split
			{
				OFFSET -0.002067 5.816869 0.032633
				CHANNELS 3 Xrotation Yrotation Zrotation
				JOINT Spine2
				{
					OFFSET -0.002067 5.816869 0.032633
					CHANNELS 3 Xrotation Yrotation Zrotation
					JOINT Neck
					{
						OFFSET -0.003700 21.199493 -0.826900
						CHANNELS 3 Xrotation Yrotation Zrotation
						JOINT Head
						{
							OFFSET 0.000000 20.442200 4.834800
							CHANNELS 3 Xrotation Yrotation Zrotation
							JOINT HeadTop_End
							{
								OFFSET 0.000000 34.668396 4.968400
								CHANNELS 3 Xrotation Yrotation Zrotation
								End Site
								{
									OFFSET 0.000000 0.000000 0.000000
								}
							}
						}
					}
					JOINT LeftShoulder
					{
						OFFSET 3.288150 8.794197 -1.372250
						CHANNELS 3 Xrotation Yrotation Zrotation
						JOINT LeftShoulder_split
						{
							OFFSET 3.288150 8.794197 -1.372250
							CHANNELS 3 Xrotation Yrotation Zrotation
							JOINT LeftArm
							{
								OFFSET 11.953299 -2.279007 -0.146200
								CHANNELS 3 Xrotation Yrotation Zrotation
								JOINT LeftForeArm
								{
									OFFSET 18.448900 0.000000 0.000000
									CHANNELS 3 Xrotation Yrotation Zrotation
									JOINT LeftHand
									{
										OFFSET 29.527798 0.000000 0.000000
										CHANNELS 3 Xrotation Yrotation Zrotation
										JOINT LeftHandThumb1
										{
											OFFSET 10.739754 -2.369614 9.225399
											CHANNELS 3 Xrotation Yrotation Zrotation
											JOINT LeftHandThumb2
											{
												OFFSET 4.926170 -2.844131 2.844125
												CHANNELS 3 Xrotation Yrotation Zrotation
												JOINT LeftHandThumb3
												{
													OFFSET 4.614891 -2.664413 2.664409
													CHANNELS 3 Xrotation Yrotation Zrotation
													JOINT LeftHandThumb4
													{
														OFFSET 4.432465 -2.559082 2.559083
														CHANNELS 3 Xrotation Yrotation Zrotation
														End Site
														{
															OFFSET 0.000000 0.000000 0.000000
														}
													}
												}
											}
										}
										JOINT LeftHandIndex1
										{
											OFFSET 26.467674 0.187653 6.405298
											CHANNELS 3 Xrotation Yrotation Zrotation
											JOINT LeftHandIndex2
											{
												OFFSET 8.792900 0.000000 0.000000
												CHANNELS 3 Xrotation Yrotation Zrotation
												JOINT LeftHandIndex3
												{
													OFFSET 10.075203 0.000000 0.000000
													CHANNELS 3 Xrotation Yrotation Zrotation
													End Site
													{
														OFFSET 0.000000 0.000000 0.000000
													}
												}
											}
										}
										JOINT LeftHandMiddle1
										{
											OFFSET 25.764404 0.000000 0.000000
											CHANNELS 3 Xrotation Yrotation Zrotation
											JOINT LeftHandMiddle2
											{
												OFFSET 9.393974 0.000000 0.000000
												CHANNELS 3 Xrotation Yrotation Zrotation
												JOINT LeftHandMiddle3
												{
													OFFSET 10.771950 0.000000 0.000000
													CHANNELS 3 Xrotation Yrotation Zrotation
													End Site
													{
														OFFSET 0.000000 0.000000 0.000000
													}
												}
											}
										}
										JOINT LeftHandRing1
										{
											OFFSET 24.660927 0.144547 -6.225808
											CHANNELS 3 Xrotation Yrotation Zrotation
											JOINT LeftHandRing2
											{
												OFFSET 9.393799 0.000000 0.000000
												CHANNELS 3 Xrotation Yrotation Zrotation
												JOINT LeftHandRing3
												{
													OFFSET 9.928497 0.000000 0.000000
													CHANNELS 3 Xrotation Yrotation Zrotation
													End Site
													{
														OFFSET 0.000000 0.000000 0.000000
													}
												}
											}
										}
										JOINT LeftHandPinky1
										{
											OFFSET 23.655350 0.125290 -12.815412
											CHANNELS 3 Xrotation Yrotation Zrotation
											JOINT LeftHandPinky2
											{
												OFFSET 8.425102 0.000000 0.000000
												CHANNELS 3 Xrotation Yrotation Zrotation
												JOINT LeftHandPinky3
												{
													OFFSET 8.147003 0.000000 0.000000
													CHANNELS 3 Xrotation Yrotation Zrotation
													End Site
													{
														OFFSET 0.000000 0.000000 0.000000
													}
												}
											}
										}
									}
								}
							}
						}
					}
					JOINT RightShoulder
					{
						OFFSET -3.249400 8.794197 -1.372250
						CHANNELS 3 Xrotation Yrotation Zrotation
						JOINT RightShoulder_split
						{
							OFFSET -3.249400 8.794197 -1.372250
							CHANNELS 3 Xrotation Yrotation Zrotation
							JOINT RightArm
							{
								OFFSET -11.953299 -2.279007 -0.146200
								CHANNELS 3 Xrotation Yrotation Zrotation
								JOINT RightForeArm
								{
									OFFSET -18.448900 0.000000 0.000000
									CHANNELS 3 Xrotation Yrotation Zrotation
									JOINT RightHand
									{
										OFFSET -29.527802 0.000000 0.000000
										CHANNELS 3 Xrotation Yrotation Zrotation
										JOINT RightHandThumb1
										{
											OFFSET -10.739754 -2.369614 9.225399
											CHANNELS 3 Xrotation Yrotation Zrotation
											JOINT RightHandThumb2
											{
												OFFSET -4.926170 -2.844131 2.844125
												CHANNELS 3 Xrotation Yrotation Zrotation
												JOINT RightHandThumb3
												{
													OFFSET -4.614891 -2.664413 2.664409
													CHANNELS 3 Xrotation Yrotation Zrotation
													JOINT RightHandThumb4
													{
														OFFSET -4.432465 -2.559082 2.559083
														CHANNELS 3 Xrotation Yrotation Zrotation
														End Site
														{
															OFFSET 0.000000 0.000000 0.000000
														}
													}
												}
											}
										}
										JOINT RightHandIndex1
										{
											OFFSET -26.467674 0.187653 6.405298
											CHANNELS 3 Xrotation Yrotation Zrotation
											JOINT RightHandIndex2
											{
												OFFSET -8.792900 0.000000 0.000000
												CHANNELS 3 Xrotation Yrotation Zrotation
												JOINT RightHandIndex3
												{
													OFFSET -10.075203 0.000000 0.000000
													CHANNELS 3 Xrotation Yrotation Zrotation
													End Site
													{
														OFFSET 0.000000 0.000000 0.000000
													}
												}
											}
										}
										JOINT RightHandMiddle1
										{
											OFFSET -25.764404 0.000000 0.000000
											CHANNELS 3 Xrotation Yrotation Zrotation
											JOINT RightHandMiddle2
											{
												OFFSET -9.393974 0.000000 0.000000
												CHANNELS 3 Xrotation Yrotation Zrotation
												JOINT RightHandMiddle3
												{
													OFFSET -10.771950 0.000000 0.000000
													CHANNELS 3 Xrotation Yrotation Zrotation
													End Site
													{
														OFFSET 0.000000 0.000000 0.000000
													}
												}
											}
										}
										JOINT RightHandRing1
										{
											OFFSET -24.660927 0.144547 -6.225808
											CHANNELS 3 Xrotation Yrotation Zrotation
											JOINT RightHandRing2
											{
												OFFSET -9.393799 0.000000 0.000000
												CHANNELS 3 Xrotation Yrotation Zrotation
												JOINT RightHandRing3
												{
													OFFSET -9.928497 0.000000 0.000000
													CHANNELS 3 Xrotation Yrotation Zrotation
													End Site
													{
														OFFSET 0.000000 0.000000 0.000000
													}
												}
											}
										}
										JOINT RightHandPinky1
										{
											OFFSET -23.655350 0.125290 -12.815412
											CHANNELS 3 Xrotation Yrotation Zrotation
											JOINT RightHandPinky2
											{
												OFFSET -8.425102 0.000000 0.000000
												CHANNELS 3 Xrotation Yrotation Zrotation
												JOINT RightHandPinky3
												{
													OFFSET -8.147003 0.000000 0.000000
													CHANNELS 3 Xrotation Yrotation Zrotation
													End Site
													{
														OFFSET 0.000000 0.000000 0.000000
													}
												}
											}
										}
									}
								}
							}
						}
					}
				}
			}
		}
	}
	JOINT LeftUpLeg
	{
		OFFSET 11.394100 -6.187798 -0.413800
		CHANNELS 3 Xrotation Yrotation Zrotation
		JOINT LeftLeg
		{
			OFFSET 0.430247 -32.302673 3.732800
			CHANNELS 3 Xrotation Yrotation Zrotation
			JOINT LeftFoot
			{
				OFFSET -0.430247 -48.264931 -6.423300
				CHANNELS 3 Xrotation Yrotation Zrotation
				JOINT LeftToeBase
				{
					OFFSET 4.230900 -16.068199 23.438400
					CHANNELS 3 Xrotation Yrotation Zrotation
					JOINT LeftToe_End
					{
						OFFSET 4.510700 0.695400 19.974600
						CHANNELS 3 Xrotation Yrotation Zrotation
						End Site
						{
							OFFSET 0.000000 0.000000 0.000000
						}
					}
				}
			}
		}
	}
	JOINT RightUpLeg
	{
		OFFSET -11.333700 -6.187798 -0.413800
		CHANNELS 3 Xrotation Yrotation Zrotation
		JOINT RightLeg
		{
			OFFSET -0.430392 -32.302628 3.733000
			CHANNELS 3 Xrotation Yrotation Zrotation
			JOINT RightFoot
			{
				OFFSET 0.430392 -48.264973 -6.423500
				CHANNELS 3 Xrotation Yrotation Zrotation
				JOINT RightToeBase
				{
					OFFSET -4.230900 -16.068199 23.438400
					CHANNELS 3 Xrotation Yrotation Zrotation
					JOINT RightToe_End
					{
						OFFSET -4.510700 0.695400 19.974600
						CHANNELS 3 Xrotation Yrotation Zrotation
						End Site
						{
							OFFSET 0.000000 0.000000 0.000000
						}
					}
				}
			}
		}
	}
}
MOTION
Frames: 4
Frame Time: 0.016667
3.275294 195.227631 -28.519272 5.212580 -7.247417 0.321835 8.445210 -0.848828 -0.671893 16.887412 -1.177192 -1.114027 0.000000 0.000000 0.000000 16.887421 -1.177190 -1.114029 -26.807214 6.493742 -1.451445 4.682582 -9.389103 9.652372 0.000002 -0.000000 0.000001 -0.612877 -14.977172 27.292794 0.000000 0.000000 0.000000 -67.334764 -8.203779 -15.014253 16.808267 -68.480289 48.053021 33.848891 9.957041 32.839618 -11.360182 -10.015417 28.397693 19.621090 23.755275 -10.341693 -0.000003 0.000005 -0.000002 -0.000000 -0.000001 0.000000 -7.847204 -3.444994 -67.091241 -4.893159 2.726501 -36.316423 -0.000000 -0.000000 -0.000001 -10.129422 -3.872129 -67.774260 -1.765735 1.717438 -28.158389 -0.000000 -0.000000 -0.000000 -15.176959 7.293284 -70.201736 7.766215 -0.421198 -31.520063 0.000000 0.000000 -0.000002 -16.483425 5.440122 -74.872704 8.338714 -0.185855 -18.883055 -0.000000 0.000001 -0.000001 6.218780 17.756036 -13.894191 0.000000 0.000000 0.000000 -82.947962 43.284504 24.548733 -18.192465 53.742483 -21.031662 34.793622 6.403812 -40.032357 15.333549 1.500913 -10.491464 -10.396775 -3.067646 -10.223935 0.000006 0.000009 0.000008 -0.000000 0.000000 0.000001 0.920255 3.497195 64.452165 1.730969 9.565833 38.865457 0.000000 -0.000001 0.000001 -6.652422 -3.924323 64.485701 9.406011 5.988755 38.253632 0.000002 -0.000003 -0.000001 -5.546319 1.390177 64.784802 0.232707 -1.792519 39.151751 -0.000001 0.000001 0.000001 -17.806382 -16.572284 61.043293 25.326743 3.860153 27.748245 -0.000002 0.000000 -0.000001 -105.316729 7.902760 24.099296 95.965517 6.111133 6.082514 10.504627 5.534645 -27.845098 17.823172 -1.543950 16.681600 -0.000000 -0.000001 -0.000001 -122.475004 11.966370 -7.666705 105.672500 -12.296371 -2.669506 23.068732 -3.781982 32.000252 2.511546 3.761236 3.542691 -0.000001 0.000000 -0.000001 
3.481235 195.133514 -29.537863 3.845944 -7.487377 0.334724 9.097235 -0.653786 -0.638973 18.191673 -0.858377 -1.119250 0.000000 0.000000 0.000000 18.191659 -0.858375 -1.119250 -27.539476 7.278517 -1.689584 7.619249 -10.946535 10.643138 -0.000001 0.000000 -0.000000 0.325166 -15.904563 27.503497 0.000000 0.000000 0.000000 -69.510603 -10.660062 -14.371497 10.803163 -66.204259 45.525519 35.794675 7.408746 31.709799 -11.360177 -10.015414 28.397698 19.621095 23.755270 -10.341703 -0.000003 0.000005 -0.000001 -0.000001 0.000000 0.000000 -7.847209 -3.444984 -67.091241 -4.893194 2.726513 -36.316423 0.000000 -0.000000 -0.000001 -10.129398 -3.872139 -67.774246 -1.765761 1.717290 -28.158382 0.000000 0.000001 0.000001 -15.176931 7.293257 -70.201736 7.766217 -0.421196 -31.520077 -0.000000 0.000001 -0.000000 -16.483396 5.440032 -74.872698 8.338650 -0.185772 -18.883071 0.000000 0.000001 -0.000000 6.708629 18.898915 -14.296310 0.000000 0.000000 0.000000 -85.364100 45.042430 22.649406 -20.331866 51.306195 -20.083102 36.853047 8.003290 -39.095088 15.333554 1.500911 -10.491465 -10.396775 -3.067646 -10.223935 0.000006 0.000009 0.000004 -0.000000 0.000000 -0.000001 0.920271 3.497211 64.452165 1.731021 9.565885 38.865453 0.000001 -0.000002 -0.000001 -6.652413 -3.924344 64.485687 9.406011 5.988775 38.253639 0.000000 -0.000001 -0.000000 -5.546324 1.390171 64.784768 0.232789 -1.792447 39.151744 0.000000 0.000001 -0.000000 -17.806351 -16.572296 61.043306 25.326886 3.860250 27.748229 -0.000001 -0.000000 -0.000000 -107.948196 6.361198 24.318538 95.831843 4.508032 4.479214 10.319349 5.640230 -28.121946 17.111267 -0.820214 16.118517 0.000001 0.000002 -0.000003 -121.697278 9.421792 -9.065249 101.920971 -9.351450 -3.150283 20.776186 -4.093564 32.029264 4.570564 3.739888 1.887704 0.000001 0.000002 -0.000001 
3.646260 194.984192 -30.499435 2.543055 -7.614607 0.396375 9.691707 -0.447928 -0.603306 19.380867 -0.593886 -1.137936 0.000000 0.000000 0.000000 19.380862 -0.593884 -1.137936 -27.906167 8.033921 -1.876915 10.220149 -12.179004 11.188150 -0.000000 -0.000001 0.000001 1.416562 -16.917224 27.896842 0.000000 0.000000 0.000000 -71.463907 -13.211099 -13.429065 5.023491 -63.827250 43.312429 37.747433 4.815422 30.664018 -11.360183 -10.015412 28.397691 19.621095 23.755261 -10.341708 -0.000003 0.000008 -0.000002 -0.000001 0.000002 0.000000 -7.847208 -3.444988 -67.091241 -4.893218 2.726540 -36.316423 -0.000000 -0.000000 0.000000 -10.129381 -3.872159 -67.774246 -1.765768 1.717172 -28.158363 0.000000 0.000000 0.000001 -15.176925 7.293224 -70.201736 7.766210 -0.421221 -31.520066 0.000000 0.000001 -0.000003 -16.483384 5.439958 -74.872704 8.338580 -0.185684 -18.883077 0.000001 -0.000001 -0.000000 7.401568 20.145757 -15.002647 0.000000 0.000000 0.000000 -85.334806 46.412221 18.300087 -22.943302 49.160256 -18.542907 37.921637 8.917816 -38.636772 15.333563 1.500899 -10.491461 -10.396774 -3.067646 -10.223933 0.000006 0.000008 0.000008 0.000000 -0.000000 -0.000001 0.920258 3.497230 64.452172 1.731072 9.565924 38.865440 -0.000000 0.000001 -0.000001 -6.652428 -3.924323 64.485687 9.406003 5.988766 38.253659 0.000002 -0.000000 0.000000 -5.546327 1.390178 64.784768 0.232879 -1.792374 39.151747 0.000000 -0.000000 0.000001 -17.806368 -16.572286 61.043293 25.327053 3.860329 27.748221 -0.000000 0.000002 -0.000000 -109.135078 5.911986 24.055510 93.731403 2.652741 3.311883 10.239768 5.703372 -27.798380 15.821421 -0.277174 14.834003 -0.000000 0.000000 -0.000002 -119.411378 6.467791 -10.633514 96.912632 -5.764113 -3.267785 17.513823 -4.639698 30.758493 6.672926 3.651659 0.751850 -0.000001 0.000000 -0.000001 
3.753150 194.769989 -31.395817 1.363929 -7.673040 0.494796 10.216581 -0.250327 -0.560855 20.431046 -0.404105 -1.150169 0.000000 0.000000 0.000000 20.431039 -0.404108 -1.150167 -27.891906 8.715290 -1.992550 12.324965 -12.999078 11.298008 0.000003 0.000001 -0.000000 2.554309 -17.796329 28.564100 0.000000 0.000000 0.000000 -72.885085 -15.245549 -11.944086 -0.383343 -61.659779 41.125071 39.226463 2.594669 29.927533 -11.360186 -10.015424 28.397703 19.621110 23.755289 -10.341714 -0.000003 0.000007 -0.000003 -0.000000 -0.000001 -0.000000 -7.847230 -3.444985 -67.091227 -4.893233 2.726604 -36.316416 0.000000 -0.000000 -0.000001 -10.129377 -3.872188 -67.774225 -1.765795 1.717023 -28.158355 0.000000 0.000000 0.000000 -15.176916 7.293185 -70.201729 7.766205 -0.421228 -31.520053 0.000001 -0.000001 -0.000001 -16.483354 5.439877 -74.872718 8.338516 -0.185605 -18.883088 0.000000 0.000001 0.000000 8.191202 21.269079 -15.938342 0.000000 0.000000 0.000000 -83.291363 47.315890 12.192949 -25.736547 47.219621 -16.682262 38.042132 9.218880 -38.545230 15.333563 1.500907 -10.491457 -10.396775 -3.067647 -10.223931 0.000005 0.000008 0.000007 -0.000000 -0.000000 0.000001 0.920266 3.497235 64.452151 1.731129 9.565962 38.865450 0.000000 -0.000001 -0.000001 -6.652416 -3.924339 64.485687 9.406017 5.988755 38.253642 0.000001 -0.000002 0.000000 -5.546333 1.390176 64.784802 0.232950 -1.792316 39.151758 0.000000 -0.000001 -0.000001 -17.806365 -16.572295 61.043299 25.327211 3.860429 27.748210 0.000000 0.000001 -0.000000 -108.636898 6.484445 23.366605 89.818866 0.442909 2.523373 9.929180 5.821344 -26.671047 13.772657 -0.049345 12.878786 -0.000000 -0.000000 0.000002 -115.775040 3.184677 -12.118372 90.703375 -1.884236 -3.031643 13.747374 -5.210115 28.090661 8.520762 3.608306 0.260845 -0.000001 0.000001 -0.000000 
